<?xml version="1.0" encoding="UTF-8"?>
<svg version="1.1" xmlns="http://www.w3.org/2000/svg" width="2220" height="2047">
<path d="M0 0 C5.51429671 0.53642361 10.31570824 1.25721836 14.27783203 5.35693359 C16.39054213 8.54642037 18.25670061 11.82000425 20.0625 15.1875 C20.77120372 16.43803369 21.48395129 17.68628309 22.20043945 18.93237305 C23.71366635 21.57387273 25.20669794 24.2253945 26.68652344 26.88574219 C30.15360647 33.09051978 33.82287878 39.17555433 37.47097778 45.27493286 C39.09357901 47.99264644 40.70595219 50.71636526 42.31855774 53.4400177 C48.19899564 63.36877787 54.18996015 73.22837118 60.21044922 83.07275391 C63.54279482 88.52361663 66.86783266 93.97890946 70.1875 99.4375 C70.53807465 100.0137915 70.88864929 100.59008301 71.24984741 101.18383789 C77.63801384 111.69189949 83.91631459 122.26354337 90.17831421 132.84713745 C94.72317524 140.52569922 99.29643147 148.17581964 104.0847168 155.70581055 C108.62482501 162.89921623 112.91824763 170.24264358 117.25 177.5625 C124.48471633 189.78588927 131.79967284 201.95504749 139.21044922 214.07275391 C142.54279478 219.52361656 145.86785811 224.97889403 149.1875 230.4375 C149.53907166 231.01545319 149.89064331 231.59340637 150.25286865 232.18887329 C156.56734272 242.57617414 162.77381768 253.02581149 168.96307373 263.48806763 C174.93842901 273.58423731 181.01673968 283.60770394 187.23828125 293.5546875 C187.68623047 294.27640137 188.13417969 294.99811523 188.59570312 295.74169922 C189.60711869 297.3681933 190.62779404 298.98894239 191.65429688 300.60595703 C192.19763672 301.47849121 192.74097656 302.35102539 193.30078125 303.25 C193.79618408 304.03632812 194.29158691 304.82265625 194.80200195 305.6328125 C196.71506525 309.41293512 196.86445887 312.798225 197 317 C188.05055788 317.93132232 183.06237459 316.05195698 175.8125 310.9375 C173.88649062 309.64553297 171.95936675 308.35522615 170.03125 307.06640625 C169.04253906 306.39496582 168.05382812 305.72352539 167.03515625 305.03173828 C162.03915204 301.68740535 156.92406383 298.53863802 151.8125 295.375 C149.78719703 294.11288278 147.76244905 292.84987449 145.73828125 291.5859375 C144.76713379 290.97975586 143.79598633 290.37357422 142.79541016 289.74902344 C138.68845463 287.17939642 134.59335525 284.59121858 130.5 282 C123.34941858 277.47408275 116.17873492 272.98111995 109 268.5 C97.8838701 261.560222 86.80011517 254.57050694 75.72753906 247.56152344 C73.42286388 246.1029806 71.11782169 244.64502077 68.8125 243.1875 C68.04486328 242.70216797 67.27722656 242.21683594 66.48632812 241.71679688 C61.98534802 238.87465464 57.47653647 236.04542551 52.9609375 233.2265625 C51.92783447 232.58122559 50.89473145 231.93588867 49.83032227 231.27099609 C47.74739758 229.97299083 45.66197027 228.67899234 43.57397461 227.38916016 C39.25248688 224.71104525 34.96925723 222.03684139 30.85546875 219.046875 C24.5375964 214.47343216 18.55975188 210.90571758 10.5234375 211.40234375 C2.86816342 214.87352679 -1.10145606 223.20600209 -5.28442383 230.18115234 C-10.83804144 239.3062511 -17.05000129 248.04838066 -23.0625 256.875 C-23.79855469 257.95652344 -24.53460937 259.03804687 -25.29296875 260.15234375 C-30.63664004 268.00340682 -35.98710653 275.84983976 -41.33862305 283.69555664 C-48.90432534 294.7889355 -56.45143103 305.89495917 -64 317 C-72.76622233 329.8963857 -81.53486594 342.79106086 -90.32324219 355.67236328 C-93.68624041 360.60267924 -97.04487614 365.53591558 -100.3984375 370.47265625 C-101.139729 371.56271973 -101.88102051 372.6527832 -102.64477539 373.77587891 C-104.11717239 375.94571016 -105.58520319 378.11851144 -107.04858398 380.29443359 C-112.86130745 388.91364964 -112.86130745 388.91364964 -116.07421875 392.94140625 C-120.95326782 399.08307594 -123.83974161 404.52639733 -123.3125 412.55859375 C-121.09580997 422.20968673 -113.88815989 430.65673462 -108.32714844 438.63134766 C-104.48000267 444.1652632 -100.85459705 449.84609335 -97.1875 455.5 C-95.76286418 457.67653141 -94.33711437 459.85233415 -92.91015625 462.02734375 C-88.33722895 469.00626315 -83.80251218 476.00944955 -79.27832031 483.02001953 C-77.02175054 486.51520305 -74.76055391 490.00739253 -72.5 493.5 C-71.58331311 494.91665358 -70.6666464 496.33332022 -69.75 497.75 C-69.069375 498.801875 -69.069375 498.801875 -68.375 499.875 C-9.25000001 591.24999999 -9.25000001 591.24999999 -7.87548828 593.37426758 C-6.957221 594.79339311 -6.03892665 596.21250114 -5.12060547 597.6315918 C-2.85320799 601.13549597 -0.58625499 604.63968595 1.6796875 608.14453125 C6.61004244 615.7693825 11.54970195 623.38807908 16.5 631 C21.89778982 639.30001525 27.28176625 647.60884956 32.65722656 655.92333984 C34.93723929 659.44948316 37.21870206 662.97468809 39.5 666.5 C40.41667341 667.9166623 41.33334008 669.33332897 42.25 670.75 C42.70375 671.45125 43.1575 672.1525 43.625 672.875 C102.74999999 764.24999999 102.74999999 764.24999999 104.12451172 766.37426758 C105.042779 767.79339311 105.96107335 769.21250114 106.87939453 770.6315918 C109.14679201 774.13549597 111.41374501 777.63968595 113.6796875 781.14453125 C118.61004244 788.7693825 123.54970195 796.38807908 128.5 804 C133.89778982 812.30001525 139.28176625 820.60884956 144.65722656 828.92333984 C146.93723929 832.44948316 149.21870206 835.97468809 151.5 839.5 C152.41667341 840.9166623 153.33334008 842.33332897 154.25 843.75 C154.70375 844.45125 155.1575 845.1525 155.625 845.875 C164.33333333 859.33333333 173.04166667 872.79166667 181.75 886.25 C182.2035083 886.95084717 182.6570166 887.65169434 183.12426758 888.3737793 C184.04348357 889.79444515 184.96259117 891.21518115 185.8815918 892.63598633 C188.13338267 896.11704071 190.38686981 899.59696844 192.64453125 903.07421875 C199.56046155 913.73240892 206.38976221 924.44451349 213.20166016 935.16943359 C216.13173768 939.78134221 219.06601935 944.39057387 222 949 C225.47766594 954.46414281 228.95486756 959.92857803 232.4296875 965.39453125 C237.36454578 973.15560925 242.30225922 980.91476664 247.26171875 988.66015625 C247.62066223 989.22074234 247.97960571 989.78132843 248.34942627 990.35890198 C250.09330246 993.08199429 251.83796947 995.80457663 253.58349609 998.52661133 C254.21723145 999.51556396 254.8509668 1000.5045166 255.50390625 1001.5234375 C256.10759033 1002.45833008 256.71127441 1003.39322266 257.33325195 1004.35644531 C258.38918222 1006.03120918 259.41312567 1007.7269388 260.39135742 1009.44824219 C262.73120195 1013.61912834 262.73120195 1013.61912834 266.54296875 1016.34375 C269.89214264 1016.54163324 271.89810741 1016.35102784 275 1015 C278.54563566 1010.90269332 280.95270937 1006.32895221 283.53369141 1001.58496094 C286.26857064 996.76363204 289.37948305 992.18281465 292.4375 987.5625 C293.73413903 985.58272909 295.02972348 983.60226705 296.32421875 981.62109375 C296.9486084 980.66702637 297.57299805 979.71295898 298.21630859 978.72998047 C300.7389539 974.86901417 303.24674324 970.99855637 305.75 967.125 C306.18820068 966.44703369 306.62640137 965.76906738 307.07788086 965.07055664 C307.94852398 963.72322144 308.81904931 962.37581012 309.68945312 961.02832031 C311.95776799 957.51767204 314.22907298 954.00895887 316.5 950.5 C317.41668015 949.08334206 318.33334684 947.66667541 319.25 946.25 C328.41666667 932.08333333 337.58333333 917.91666667 346.75 903.75 C347.20358887 903.0489917 347.65717773 902.3479834 348.12451172 901.62573242 C349.042779 900.20660689 349.96107335 898.78749886 350.87939453 897.3684082 C353.14679201 893.86450403 355.41374501 890.36031405 357.6796875 886.85546875 C363.16087876 878.37874273 368.65581847 869.9110796 374.15917969 861.44873047 C379.00320999 853.9986981 383.83254548 846.53923298 388.65722656 839.07666016 C390.93723929 835.55051684 393.21870206 832.02531191 395.5 828.5 C396.41667341 827.0833377 397.33334008 825.66667103 398.25 824.25 C429.41666667 776.08333333 460.58333333 727.91666667 491.75 679.75 C492.20358887 679.0489917 492.65717773 678.3479834 493.12451172 677.62573242 C494.042779 676.20660689 494.96107335 674.78749886 495.87939453 673.3684082 C498.14679201 669.86450403 500.41374501 666.36031405 502.6796875 662.85546875 C508.16087876 654.37874273 513.65581847 645.9110796 519.15917969 637.44873047 C524.4525542 629.30761472 529.72801678 621.15497843 535 613 C547.31873426 593.94473976 559.6939805 574.92659446 572.09277344 555.92333984 C575.22916008 551.11598019 578.36453396 546.30796012 581.5 541.5 C582.74999503 539.58333009 583.99999504 537.66666343 585.25 535.75 C585.86875 534.80125 586.4875 533.8525 587.125 532.875 C637.75 455.25 637.75 455.25 639.62841797 452.36987305 C640.86716401 450.47038704 642.10577282 448.57081153 643.34423828 446.67114258 C646.64025172 441.61583523 649.93925538 436.56250893 653.2421875 431.51171875 C653.93376953 430.45339844 654.62535156 429.39507813 655.33789062 428.3046875 C656.67165777 426.26375523 658.00626121 424.22336918 659.34179688 422.18359375 C660.23608398 420.81460938 660.23608398 420.81460938 661.1484375 419.41796875 C661.67614746 418.61125732 662.20385742 417.8045459 662.74755859 416.97338867 C665.02458196 413.3856343 665.48226589 411.29564666 665 407 C663.60162159 404.13089999 661.78437846 401.59667583 659.9375 399 C659.40165283 398.22237305 658.86580566 397.44474609 658.3137207 396.64355469 C657.1553586 394.96367245 655.99132398 393.28769054 654.82226562 391.61523438 C652.3696822 388.09539599 649.96246985 384.54550785 647.55297852 380.99609375 C645.65868325 378.20758006 643.75806686 375.4234793 641.85546875 372.640625 C638.06553727 367.09700018 634.28215145 361.5489346 630.5 356 C629.25003031 354.166646 628.00003029 352.33331268 626.75 350.5 C614.25 332.16666667 601.75 313.83333333 589.25 295.5 C588.63141113 294.5927417 588.01282227 293.6854834 587.37548828 292.75073242 C586.12384048 290.91497145 584.87221292 289.07919668 583.62060547 287.2434082 C580.52098153 282.69710508 577.42102131 278.15103204 574.3203125 273.60546875 C568.39242201 264.91452526 562.46468377 256.22350735 556.55737305 247.51855469 C555.11196172 245.39514698 553.66037138 243.27593115 552.20239258 241.16113281 C548.82523468 236.24960497 545.55690197 231.32982921 542.52734375 226.1953125 C537.51225944 217.48673566 537.51225944 217.48673566 529.859375 211.34375 C518.67289477 209.96532116 508.64047284 218.9772688 499.98681641 224.96826172 C495.02592835 228.34283343 489.91642784 231.47287428 484.8125 234.625 C482.79357969 235.88300607 480.77534039 237.14210579 478.7578125 238.40234375 C477.7874707 239.00804199 476.81712891 239.61374023 475.81738281 240.23779297 C468.52747181 244.79746174 461.2651983 249.40110138 454 254 C442.66039948 261.17801098 431.29868526 268.31906736 419.91455078 275.42626953 C411.35626365 280.77160393 402.82068397 286.15209443 394.29443359 291.54833984 C391.95349466 293.02942336 389.61167713 294.50910717 387.26953125 295.98828125 C386.48215576 296.48602051 385.69478027 296.98375977 384.88354492 297.49658203 C383.30619855 298.49149128 381.72695682 299.4834025 380.14575195 300.47216797 C376.01146286 303.06332606 371.93113279 305.70997825 367.8984375 308.45703125 C367.05732422 309.01841797 366.21621094 309.57980469 365.34960938 310.15820312 C363.74656054 311.22985456 362.155668 312.32001168 360.58007812 313.43164062 C355.77136453 316.61056956 352.66983269 317.51524985 346.94970703 316.4987793 C345.27960847 316.07153019 343.63541857 315.54513952 342 315 C342.67733006 311.28132515 344.30895028 308.48987552 346.21875 305.25 C346.5480954 304.68866867 346.8774408 304.12733734 347.21676636 303.54899597 C348.30601849 301.69623561 349.40279065 299.84805752 350.5 298 C351.27187168 296.69194563 352.04351516 295.38375657 352.81494141 294.07543945 C358.62186264 284.24600847 364.53440133 274.48211115 370.48046875 264.73632812 C375.88960938 255.86481038 381.20847272 246.94208926 386.5 238 C392.78023027 227.38856002 399.122927 216.81900445 405.54199219 206.29101562 C411.26451936 196.90157441 416.89939881 187.46261639 422.5 178 C428.78046857 167.38869902 435.122925 156.81900773 441.54199219 146.29101562 C447.26451936 136.90157441 452.89939881 127.46261639 458.5 118 C464.78046857 107.38869902 471.122925 96.81900773 477.54199219 86.29101562 C483.26452153 76.90157084 488.89916548 67.4624812 494.5 58 C500.67420452 47.57039412 506.89195315 37.16936966 513.1875 26.8125 C513.8578125 25.70970703 514.528125 24.60691406 515.21875 23.47070312 C516.49942143 21.3674762 517.79127482 19.27100977 519.09521484 17.18212891 C520.45887786 14.90399718 521.68939917 12.67778237 522.87744141 10.31396484 C527.31436751 1.7729619 527.31436751 1.7729619 531.65991211 -0.21972656 C535.01003409 -0.59386068 536.90420532 -0.34891418 540 1 C543.54015327 4.36407641 545.84067472 8.36048222 548.25 12.5625 C548.97277845 13.75331787 549.69973427 14.94160941 550.43066406 16.12744141 C551.92317837 18.55711014 553.39618909 20.99701354 554.85546875 23.44677734 C557.99665385 28.69134614 561.3804442 33.77545209 564.75 38.875 C565.98578185 40.76731116 567.2201767 42.6605289 568.453125 44.5546875 C569.04673828 45.46573242 569.64035156 46.37677734 570.25195312 47.31542969 C573.53383593 52.35559496 576.81047262 57.39916755 580.08691406 62.44287109 C584.21743184 68.79993705 588.35740238 75.15080057 592.5 81.5 C598.81002364 91.17155119 605.10766032 100.85107808 611.3984375 110.53515625 C613.0358087 113.05511046 614.67403178 115.57450895 616.3125 118.09375 C622.77360863 128.02865468 629.22290966 137.97106371 635.65722656 147.92333984 C637.93723929 151.44948316 640.21870206 154.97468809 642.5 158.5 C643.41667341 159.9166623 644.33334008 161.33332897 645.25 162.75 C645.70375 163.45125 646.1575 164.1525 646.625 164.875 C650.75 171.25 650.75 171.25 652.12402344 173.37353516 C653.04389136 174.79511955 653.96381354 176.21666883 654.88378906 177.63818359 C657.12691496 181.10432831 659.3692035 184.57100752 661.609375 188.0390625 C667.48651625 197.1347424 673.39299815 206.21098077 679.31152344 215.27978516 C683.38091453 221.51560726 687.4438618 227.7555502 691.5 234 C698.0183441 244.03376555 704.55460383 254.05580551 711.09277344 264.07666016 C714.85271797 269.8397907 718.61129129 275.6038156 722.37011719 281.36767578 C725.51972495 286.19723864 728.66967297 291.02657891 731.8203125 295.85546875 C738.25232784 305.71437751 744.6778956 315.57739302 751.09082031 325.44873047 C754.5517815 330.77498754 758.01750351 336.09811343 761.48754883 341.41845703 C762.74052642 343.33965692 763.9929725 345.26120357 765.24487305 347.18310547 C768.55489816 352.26245202 771.8765584 357.33370602 775.21484375 362.39453125 C775.90078613 363.43762451 776.58672852 364.48071777 777.29345703 365.55541992 C778.60980328 367.55668007 779.92962698 369.55565853 781.25341797 371.55200195 C781.84654785 372.45523193 782.43967773 373.35846191 783.05078125 374.2890625 C783.83449097 375.47556396 783.83449097 375.47556396 784.6340332 376.68603516 C787.84689161 382.1286575 788.44333148 386.90695172 788.8515625 393.10546875 C788.91532074 393.98471512 788.97907898 394.86396149 789.04476929 395.76985168 C789.1778914 397.6279536 789.30708843 399.48634036 789.43261719 401.3449707 C789.62320843 404.16102894 789.82614372 406.97598126 790.03125 409.79101562 C790.15958813 411.60411486 790.28721474 413.41726463 790.4140625 415.23046875 C790.47340973 416.05999557 790.53275696 416.8895224 790.59390259 417.7441864 C790.70147127 419.35742365 790.79540052 420.97163315 790.87510681 422.58648682 C790.959873 424.2245611 791.08125927 425.86106901 791.23536682 427.49407959 C791.68188711 434.69448677 789.38090475 438.8083827 785.32421875 444.6171875 C784.43661613 445.94613289 784.43661613 445.94613289 783.53108215 447.30192566 C781.60469617 450.17478365 779.64677897 453.02449806 777.6875 455.875 C776.33780789 457.87419672 774.99016519 459.8747785 773.64453125 461.87670898 C770.3604354 466.75202411 767.05191111 471.61008261 763.7333374 476.4619751 C761.4301924 479.83433605 759.14492549 483.21854178 756.86328125 486.60546875 C753.92799334 490.95440163 750.98136134 495.29534885 748.0234375 499.62890625 C741.69664875 508.90077451 735.40678009 518.19759427 729.125 527.5 C728.51047974 528.4099472 727.89595947 529.31989441 727.26281738 530.25741577 C717.82981992 544.23445469 708.50904746 558.28224207 699.25 572.375 C690.41263823 585.82535788 681.52490178 599.23713077 672.5 612.5625 C671.99621826 613.30641998 671.49243652 614.05033997 670.97338867 614.81680298 C668.39456368 618.6236766 665.81392531 622.42931728 663.23242188 626.234375 C657.39603017 634.83772141 651.56890998 643.44732037 645.75 652.0625 C645.1461145 652.95649506 644.542229 653.85049011 643.92004395 654.77157593 C634.6006291 668.57677758 625.39625397 682.45458572 616.25 696.375 C607.41255756 709.82530576 598.52490262 723.23712953 589.5 736.5625 C588.99621826 737.30641998 588.49243652 738.05033997 587.97338867 738.81680298 C585.39456368 742.6236766 582.81392531 746.42931728 580.23242188 750.234375 C574.39603019 758.83772137 568.56889422 767.44730977 562.75 776.0625 C562.14544983 776.95749207 561.54089966 777.85248413 560.91802979 778.77459717 C551.64141389 792.51662363 542.47880914 806.33050432 533.375 820.1875 C524.16683304 834.20312137 514.89520948 848.17147292 505.5 862.0625 C504.94904663 862.87717743 504.39809326 863.69185486 503.83044434 864.53121948 C500.46396331 869.50760431 497.09437464 874.4818798 493.72399902 879.45562744 C488.3523077 887.38346487 482.98526209 895.31443001 477.625 903.25 C477.02465942 904.13867767 476.42431885 905.02735535 475.80578613 905.94296265 C465.90207075 920.61242184 456.13768025 935.37025399 446.41851807 950.16244507 C438.19015141 962.68256193 429.90138089 975.15776639 421.5 987.5625 C420.99621826 988.30641998 420.49243652 989.05033997 419.97338867 989.81680298 C417.39456368 993.6236766 414.81392531 997.42931728 412.23242188 1001.234375 C406.39603019 1009.83772137 400.56889422 1018.44730977 394.75 1027.0625 C394.14544983 1027.95749207 393.54089966 1028.85248413 392.91802979 1029.77459717 C383.64141389 1043.51662363 374.47880914 1057.33050432 365.375 1071.1875 C352.89419575 1090.18435655 340.22683422 1109.04814472 327.47705078 1127.86523438 C322.5432042 1135.14879054 317.62150173 1142.44053647 312.70214844 1149.73388672 C310.22085296 1153.41253195 307.7355716 1157.08843296 305.24707031 1160.76220703 C299.91169043 1168.64741949 294.61241396 1176.5458552 289.48828125 1184.5703125 C288.66646433 1185.84618394 287.84429415 1187.12182793 287.02172852 1188.3972168 C285.56007297 1190.66367862 284.13075437 1192.94149942 282.71459961 1195.23754883 C279.15445084 1200.76473078 276.2361088 1204.18932655 270.08691406 1206.70922852 C267.34253821 1207.0916047 266.26694849 1206.56415106 264 1205 C262.53735352 1203.25219727 262.53735352 1203.25219727 261.12890625 1201.06640625 C260.29129761 1199.78685059 260.29129761 1199.78685059 259.43676758 1198.48144531 C258.81825928 1197.51819336 258.19975098 1196.55494141 257.5625 1195.5625 C256.12163244 1193.35944304 254.67887959 1191.15769816 253.234375 1188.95703125 C252.63493828 1188.04085526 252.63493828 1188.04085526 252.02339172 1187.10617065 C248.56775695 1181.83436289 245.0497605 1176.60615087 241.515625 1171.38671875 C240.93924789 1170.53545914 240.36287079 1169.68419952 239.76902771 1168.80714417 C238.56720406 1167.03257539 237.365293 1165.25806583 236.16329956 1163.48361206 C225.49643176 1147.7287572 214.94446397 1131.90308381 204.5 1116 C194.9216347 1101.41874663 185.26624541 1086.89365458 175.5 1072.4375 C174.901875 1071.55206512 174.30375 1070.66663025 173.6875 1069.75436401 C169.46173832 1063.50060386 165.23141142 1057.24993831 161 1051 C156.16349038 1043.85631112 151.32907121 1036.71121986 146.5 1029.5625 C145.6028125 1028.23446854 145.6028125 1028.23446854 144.6875 1026.87960815 C134.9136042 1012.40324279 125.27788126 997.83942506 115.6875 983.24102783 C106.71091421 969.58117683 97.65015428 955.98170651 88.5 942.4375 C87.901875 941.55206512 87.30375 940.66663025 86.6875 939.75436401 C82.46173832 933.50060386 78.23141142 927.24993831 74 921 C69.16349038 913.85631112 64.32907121 906.71121986 59.5 899.5625 C58.6028125 898.23446854 58.6028125 898.23446854 57.6875 896.87960815 C47.9136042 882.40324279 38.27788126 867.83942506 28.6875 853.24102783 C19.71091421 839.58117683 10.65015428 825.98170651 1.5 812.4375 C0.901875 811.55206512 0.30375 810.66663025 -0.3125 809.75436401 C-4.53826168 803.50060386 -8.76858858 797.24993831 -13 791 C-17.83650962 783.85631112 -22.67092879 776.71121986 -27.5 769.5625 C-28.098125 768.67714569 -28.69625 767.79179138 -29.3125 766.87960815 C-39.0863958 752.40324279 -48.72211874 737.83942506 -58.3125 723.24102783 C-67.28908579 709.58117683 -76.34984572 695.98170651 -85.5 682.4375 C-86.098125 681.55206512 -86.69625 680.66663025 -87.3125 679.75436401 C-91.53826168 673.50060386 -95.76858858 667.24993831 -100 661 C-104.83650962 653.85631112 -109.67092879 646.71121986 -114.5 639.5625 C-115.098125 638.67714569 -115.69625 637.79179138 -116.3125 636.87960815 C-126.0863958 622.40324279 -135.72211874 607.83942506 -145.3125 593.24102783 C-154.28908579 579.58117683 -163.34984572 565.98170651 -172.5 552.4375 C-173.3971875 551.10934769 -173.3971875 551.10934769 -174.3125 549.75436401 C-178.53826168 543.50060386 -182.76858858 537.24993831 -187 531 C-191.83650962 523.85631112 -196.67091839 516.71121283 -201.5 509.5625 C-202.08915192 508.69043915 -202.67830383 507.8183783 -203.28530884 506.91989136 C-216.97794387 486.63946977 -230.43273334 466.20270712 -243.85368347 445.74182129 C-244.89649497 444.15727528 -245.94778741 442.57831889 -247 441 C-247.30780029 438.46907043 -247.30780029 438.46907043 -247.38574219 435.40551758 C-247.41786804 434.25614212 -247.4499939 433.10676666 -247.48309326 431.92256165 C-247.57259626 426.62096479 -247.65513363 421.31996049 -247.70019531 416.01782227 C-247.72665108 413.23617614 -247.78189333 410.45754465 -247.86425781 407.67700195 C-248.69590177 378.93553532 -248.69590177 378.93553532 -238.32489014 366.61947632 C-236.22666916 364.05472088 -234.52340708 361.25527212 -232.76171875 358.453125 C-231.40523546 356.38437347 -230.04714572 354.31667446 -228.6875 352.25 C-227.57787648 350.55881188 -226.46890361 348.86719826 -225.35995483 347.17556763 C-224.26228552 345.50126029 -223.16410555 343.82728777 -222.06591797 342.15332031 C-219.11622424 337.65104612 -216.18123372 333.13930733 -213.25 328.625 C-212.72946045 327.82352539 -212.2089209 327.02205078 -211.67260742 326.19628906 C-210.6351478 324.59870171 -209.59779332 323.00104608 -208.56054688 321.40332031 C-205.87526951 317.26785874 -203.18746677 313.13403894 -200.5 309 C-199.4192651 307.33724331 -198.33853593 305.6744829 -197.2578125 304.01171875 C-195.06558485 300.63901012 -192.87282092 297.26665096 -190.6796875 293.89453125 C-185.61182146 286.10149196 -180.54737182 278.30633217 -175.5 270.5 C-169.9005475 261.83981253 -164.27981278 253.19352012 -158.65722656 244.54833984 C-155.93741031 240.36604137 -153.21875722 236.18298696 -150.5 232 C-149.41667239 230.33332961 -148.33333905 228.66666295 -147.25 227 C-146.71375 226.175 -146.1775 225.35 -145.625 224.5 C-23.75 37 -23.75 37 -22.12207031 34.49560547 C-21.04836505 32.84367664 -19.97479536 31.19165968 -18.90136719 29.53955078 C-16.04688077 25.14662997 -13.18944982 20.75565776 -10.328125 16.3671875 C-9.72935547 15.44808594 -9.13058594 14.52898438 -8.51367188 13.58203125 C-7.35958251 11.81063826 -6.20466719 10.03978305 -5.04882812 8.26953125 C-4.27442383 7.08037109 -4.27442383 7.08037109 -3.484375 5.8671875 C-3.02772461 5.16706543 -2.57107422 4.46694336 -2.10058594 3.74560547 C-0.95504949 1.99237263 -0.95504949 1.99237263 0 0 Z " fill="#31A7E0" transform="translate(840,840)"/>
<path d="M0 0 C3.11734959 1.1795791 4.46228503 2.27722163 6.48339844 4.93969727 C6.54195786 8.17318535 6.54195786 8.17318535 5.9208374 12.02145386 C5.81378282 12.72373733 5.70672824 13.42602081 5.59642959 14.1495856 C5.2458962 16.41672891 4.86483069 18.67757027 4.48339844 20.93969727 C4.25431928 22.40089469 4.0274835 23.86244563 3.80292511 25.32434464 C3.06205326 30.09879623 2.2739504 34.86499395 1.484375 39.6315918 C1.18454076 41.45587407 0.88497853 43.28020106 0.58566284 45.10456848 C-0.22698394 50.05299636 -1.04340377 55.00079507 -1.86048412 59.94849253 C-2.74131685 65.28656621 -3.6185207 70.62523634 -4.49615479 75.96383667 C-6.18156871 86.21282437 -7.8700683 96.46130117 -9.55972695 106.70958984 C-11.74608829 119.97133754 -13.92819301 133.23378511 -16.11053071 146.49619541 C-18.12435774 158.73433432 -20.1387085 170.97238661 -22.15455151 183.21019363 C-26.26737772 208.18028038 -30.37388192 233.15138458 -34.46858215 258.12445068 C-46.35600728 330.61940007 -58.29728735 403.10525888 -89.3274044 590.10200138 C-90.53600002 597.37356641 -91.74446509 604.64515313 -92.95288086 611.91674805 C-93.08625726 612.71931738 -93.21963366 613.52188671 -93.35705177 614.34877633 C-97.73066201 640.66675559 -102.09178192 666.98678664 -106.44669545 693.3078656 C-110.97717086 720.68966582 -115.51932397 748.06950329 -120.07641427 775.4468873 C-120.71905392 779.30766055 -121.361565 783.16845518 -122.00399971 787.02926254 C-122.13032089 787.7883799 -122.25664206 788.54749727 -122.38679115 789.32961818 C-124.40413899 801.45476036 -126.40938455 813.58187285 -128.40991414 825.70979991 C-130.41056681 837.83680409 -132.42432372 849.96157495 -134.45134263 862.0842004 C-135.5451187 868.62772323 -136.63282201 875.17214639 -137.70495605 881.71926117 C-138.68761057 887.71915039 -139.68700568 893.71601085 -140.69925625 899.71097563 C-141.0602665 901.86643932 -141.41536871 904.02290368 -141.76359891 906.18046893 C-143.46117024 916.67772416 -145.49632277 926.85958411 -148.89237309 936.95391655 C-149.15721255 937.76389753 -149.42205202 938.5738785 -149.69491693 939.40840436 C-152.7275561 947.84503896 -158.53794305 952.66800354 -165.51660156 957.93969727 C-167.35411169 959.43457774 -169.18768404 960.93431632 -171.01660156 962.43969727 C-172.34691406 963.50704102 -172.34691406 963.50704102 -173.70410156 964.59594727 C-176.91509961 967.27177897 -179.96689293 970.08328003 -183.01660156 972.93969727 C-187.74381943 977.36730273 -192.61193588 981.51313154 -197.66894531 985.56469727 C-201.67851626 988.90875643 -205.481875 992.46059036 -209.27832031 996.04321289 C-213.14061858 999.67244144 -214.86980733 1001.07750861 -220.14160156 1001.00219727 C-220.95886719 1000.99317383 -221.77613281 1000.98415039 -222.61816406 1000.97485352 C-223.55789063 1000.95745117 -223.55789063 1000.95745117 -224.51660156 1000.93969727 C-224.86747092 977.85507694 -224.06822339 955.08881213 -222.19250485 932.08342405 C-221.84182825 927.74326011 -221.50750048 923.4018271 -221.17089272 919.06055355 C-220.58344154 911.51177147 -219.98614309 903.96382274 -219.3819046 896.41636658 C-218.48873759 885.25930387 -217.61150837 874.10102682 -216.7374652 862.94245167 C-215.27654455 844.29665791 -213.80333529 825.65185547 -212.32293701 807.00759888 C-210.86397873 788.63238214 -209.41127808 770.25668684 -207.96661377 751.88034058 C-207.87660566 750.73542966 -207.78659755 749.59051874 -207.69386192 748.41091355 C-207.23777993 742.6089512 -206.781828 736.80697864 -206.32594132 731.00500095 C-205.40731441 719.31419177 -204.48786453 707.62344733 -203.56814575 695.932724 C-203.47673413 694.77076296 -203.38532251 693.60880193 -203.29114084 692.41162995 C-201.15442123 665.25382721 -199.00879992 638.09672882 -196.86230469 610.93969727 C-194.08592146 575.81242712 -191.31207704 540.68496013 -188.54589844 505.55688477 C-188.46689872 504.55367336 -188.387899 503.55046194 -188.30650535 502.51685019 C-186.54018739 480.08570076 -184.77576988 457.65440242 -183.01412964 435.22288513 C-182.90433944 433.82490008 -182.90433944 433.82490008 -182.79233126 432.3986729 C-182.06653436 423.15664445 -181.34090218 413.91460308 -180.61557575 404.6725377 C-179.16716605 386.21770047 -177.71609657 367.76308077 -176.25665283 349.30911255 C-174.84213238 331.42301324 -173.43179576 313.53658985 -172.02731848 295.64969897 C-171.78717921 292.59159068 -171.54675967 289.53350464 -171.30608606 286.47543836 C-168.91546895 256.09510912 -166.56388626 225.71564959 -164.62304688 195.30249023 C-164.55274081 194.20552177 -164.48243474 193.1085533 -164.40999818 191.97834337 C-163.77098274 181.98877411 -163.14331845 171.99887034 -162.57445431 162.00503778 C-162.37751351 158.58093234 -162.16973134 155.15753471 -161.96000624 151.73419118 C-161.82712723 149.4942031 -161.71024296 147.25381655 -161.59433365 145.0128994 C-161.17602554 137.77078061 -160.27649163 130.78846238 -158.7203064 123.70570374 C-158.57301641 122.99738039 -158.42572643 122.28905705 -158.27397311 121.55926937 C-156.65757302 114.79157854 -153.0270229 111.80236909 -147.36132812 108.15942383 C-144.40934627 106.20758405 -141.60315459 104.06379011 -138.76879883 101.94628906 C-136.30611516 100.1100581 -133.82953701 98.29418546 -131.34863281 96.48266602 C-127.0458553 93.33489381 -122.77457521 90.147708 -118.51660156 86.93969727 C-112.81705635 82.64863576 -107.08159784 78.40945605 -101.32910156 74.18969727 C-93.60096668 68.51651505 -85.96657202 62.72830581 -78.35375977 56.90161133 C-71.85120342 51.93347374 -65.28230401 47.06407464 -58.68066406 42.22875977 C-51.84726787 37.21154861 -45.1101324 32.07349896 -38.37890625 26.92041016 C-31.64241339 21.77291352 -24.8426411 16.71774548 -17.99511719 11.71899414 C-17.27517578 11.19241211 -16.55523438 10.66583008 -15.81347656 10.12329102 C-15.11029297 9.61266113 -14.40710937 9.10203125 -13.68261719 8.57592773 C-12.13791477 7.40904365 -10.62929251 6.19375051 -9.14746094 4.94799805 C-8.36693359 4.29686035 -7.58640625 3.64572266 -6.78222656 2.97485352 C-6.08387695 2.37165283 -5.38552734 1.76845215 -4.66601562 1.14697266 C-2.51660156 -0.06030273 -2.51660156 -0.06030273 0 0 Z " fill="#1084CA" transform="translate(1365.5166015625,0.060302734375)"/>
<path d="M0 0 C1.44654463 -0.03049155 2.89327419 -0.05229848 4.34002686 -0.07040405 C5.14564434 -0.08347281 5.95126183 -0.09654156 6.78129196 -0.11000633 C9.72187838 0.03579164 11.27703589 0.90468831 13.578125 2.7109375 C14.33915527 3.29085449 15.10018555 3.87077148 15.88427734 4.46826172 C16.66496582 5.09748535 17.4456543 5.72670898 18.25 6.375 C19.08354004 7.01840332 19.91708008 7.66180664 20.77587891 8.32470703 C23.19827727 10.19892025 25.59944635 12.09795053 28 14 C29.1251133 14.86782231 30.2523809 15.73286679 31.3828125 16.59375 C33.97079579 18.56683386 36.54604431 20.55543642 39.11914062 22.54785156 C49.88568862 30.86034215 60.71075534 39.09190502 71.6875 47.125 C78.63832429 52.21181156 85.46031362 57.43996665 92.23779297 62.75488281 C97.528505 66.89023143 102.89369713 70.90928393 108.3125 74.875 C117.72371619 81.76366205 127.00185988 88.81847629 136.26367188 95.90625 C141.04755855 99.56672574 145.83591664 103.22132745 150.625 106.875 C151.52009277 107.55933105 152.41518555 108.24366211 153.33740234 108.94873047 C154.1670752 109.58182129 154.99674805 110.21491211 155.8515625 110.8671875 C156.94718506 111.70419189 156.94718506 111.70419189 158.06494141 112.55810547 C159.6731535 113.75645276 161.33125009 114.88750006 163 116 C163.55896521 118.60367852 163.55896521 118.60367852 163.82350922 121.98824024 C163.93113319 123.27686582 164.03875716 124.5654914 164.14964247 125.89316624 C164.25605334 127.34052809 164.3622095 128.78790868 164.46813965 130.23530579 C164.59063111 131.76769428 164.71436346 133.29998401 164.83923006 134.8321808 C165.18198721 139.08308036 165.50693532 143.33518934 165.82924891 147.58768108 C166.1831469 152.21566602 166.55341345 156.84234469 166.92166138 161.46920586 C167.56796459 169.61845947 168.20370775 177.76848487 168.83274841 185.91908836 C169.77191047 198.0870691 170.72725902 210.25374056 171.68606716 222.42018706 C173.31814152 243.13509844 174.93719858 263.85100872 176.54980469 284.56744385 C178.19993217 305.76400469 179.85778132 326.95994409 181.52441406 348.1552124 C181.60367364 349.16322295 181.60367364 349.16322295 181.68453443 350.19159736 C182.27717676 357.72851801 182.87003776 365.26542145 183.46298218 372.80231833 C184.56622536 386.82574521 185.66850831 400.84924756 186.77050781 414.87277222 C186.82578286 415.57616178 186.8810579 416.27955134 186.93800795 417.00425574 C189.6142973 451.06151932 192.28081357 485.1195466 194.9453125 519.17773438 C195.00221921 519.90511968 195.05912592 520.63250499 195.11775708 521.38193227 C196.21401568 535.39441719 197.31014146 549.40691249 198.40614319 563.4194175 C200.04721978 584.40066792 201.68889718 605.38187126 203.33105469 626.36303711 C203.38943611 627.10895645 203.44781753 627.85487579 203.50796809 628.62339874 C204.85253232 645.80239511 206.19725717 662.9813789 207.54212189 680.16035175 C207.65739489 681.63282729 207.77266786 683.10530283 207.88794079 684.57777837 C208.0028172 686.04518629 208.11769366 687.5125942 208.23257017 688.98000211 C208.2892791 689.70438986 208.34598802 690.42877761 208.4044154 691.1751165 C208.68930557 694.81423373 208.97419931 698.45335067 209.25909954 702.09246711 C210.56557064 718.7804666 211.8717092 735.46849199 213.17680123 752.15659939 C213.68712878 758.6819483 214.19764229 765.20728254 214.70861959 771.7325806 C214.90904819 774.29234315 215.1094694 776.85210629 215.30988312 779.41187 C215.40821818 780.66784318 215.50655325 781.92381636 215.60786816 783.21784933 C216.19158344 790.6770408 216.77302064 798.13640572 217.35260257 805.59591946 C217.822177 811.63811292 218.29291414 817.68021526 218.7644043 823.72225952 C218.85632689 824.90023983 218.94824948 826.07822014 219.0429576 827.29189683 C220.33268025 843.78990257 221.68117471 860.28226781 223.07005829 876.77220499 C223.64476915 883.61845146 224.20980825 890.46550475 224.77493718 897.31254802 C225.21252865 902.60063794 225.65690961 907.88793158 226.12024975 913.1738323 C228.65943341 942.17597545 229.43961889 970.88912442 229 1000 C227.55000197 1000.03500535 226.09976152 1000.06007364 224.64949036 1000.08088684 C223.841927 1000.09590146 223.03436365 1000.11091608 222.20232868 1000.12638569 C219.19500176 999.95380333 217.91330761 999.01697756 215.82421875 996.88671875 C215.1477832 996.22124023 214.47134766 995.55576172 213.77441406 994.87011719 C213.08573242 994.14985352 212.39705078 993.42958984 211.6875 992.6875 C210.1972555 991.2063861 208.70636756 989.72591934 207.21484375 988.24609375 C206.49538574 987.5176123 205.77592773 986.78913086 205.03466797 986.03857422 C202.35007742 983.34882966 199.56859742 980.79909009 196.75 978.25 C192.67668387 974.53233493 188.61324484 970.80470849 184.5625 967.0625 C184.02351074 966.56476074 183.48452148 966.06702148 182.92919922 965.55419922 C180.17714167 963.0123854 177.42617727 960.46939273 174.67578125 957.92578125 C174.12269287 957.4145874 173.56960449 956.90339355 172.99975586 956.37670898 C168.54923692 952.26323911 168.54923692 952.26323911 166.89297104 950.69602966 C165.43558574 949.39026816 163.91421797 948.1556759 162.36951065 946.95448303 C154.85160792 940.8309688 152.12806276 935.82497571 150.76464844 926.12890625 C150.54879121 924.86144467 150.33293398 923.5939831 150.11053562 922.28811359 C149.51633263 918.79243081 148.97876019 915.29008 148.4503386 911.78393769 C147.86624547 907.97846845 147.22848405 904.18195304 146.59721375 900.38407898 C145.50409333 893.76411536 144.44381175 887.13956511 143.40524292 880.51083374 C141.87377056 870.73923825 140.28927692 860.97678838 138.69102418 851.21591842 C136.68346843 838.95338709 134.6859081 826.68928842 132.71473694 814.42085266 C132.55959285 813.45526584 132.40444876 812.48967901 132.24460334 811.49483198 C132.0890371 810.52654842 131.93347086 809.55826486 131.7731905 808.56063938 C127.69453058 783.17464458 123.50426206 757.80829966 119.26171875 732.44921875 C118.93263738 730.48156932 118.60355999 728.51391922 118.27448654 726.54626846 C116.95752324 718.67265109 115.64002777 710.79912295 114.32151985 702.92576408 C112.18583259 690.17123602 110.05857819 677.41533074 107.93847656 664.65820312 C99.92434624 616.44298461 91.85191591 568.23765723 83.76171875 520.03515625 C74.70422402 466.06930424 65.66243457 412.1008594 56.64243028 358.12872788 C56.06705493 354.68594834 55.49164979 351.24317377 54.91624516 347.80039912 C50.29545301 320.15310063 45.67573669 292.50562239 41.05642305 264.85807684 C40.4681167 261.33694232 39.879806 257.81580853 39.29149488 254.29467481 C38.9973375 252.5340893 38.70318243 250.77350339 38.40902969 249.0129171 C36.80298279 239.4002982 35.19673145 229.78771354 33.5899086 220.1752243 C33.15753071 217.58855049 32.72515598 215.00187615 32.29278466 212.41520125 C32.00616693 210.70050404 31.71954468 208.98580759 31.43291786 207.27111191 C29.61048615 196.36836424 27.79019691 185.46526172 25.97204518 174.56179953 C24.63704506 166.55599679 23.30084884 158.55039391 21.96386719 150.54492188 C21.8350082 149.77327717 21.70614922 149.00163247 21.57338542 148.2066046 C18.23379052 128.21140828 14.85309892 108.22412857 11.40259337 88.24773169 C10.80514832 84.78562296 10.20976464 81.32316705 9.61525154 77.86055374 C9.42658858 76.76186801 9.23792562 75.66318227 9.0435456 74.53120303 C8.67418801 72.37993098 8.3049224 70.22864314 7.9357549 68.07733846 C7.07553007 63.07173876 6.20887133 58.06744166 5.3259697 53.06578827 C-1.19610294 16.11118132 -1.19610294 16.11118132 0 0 Z " fill="#1084CA" transform="translate(849,1)"/>
<path d="M0 0 C14.97324838 8.28190661 28.24189133 18.63176426 41.66796875 29.17236328 C45.51869261 32.19021492 49.38552424 35.18729453 53.25 38.1875 C59.07182278 42.71281407 64.87939066 47.25559145 70.67285156 51.81713867 C75.43435444 55.56310013 80.21564129 59.28329181 85 63 C90.34487747 67.15214475 95.68232498 71.31306819 101 75.5 C109.30442076 82.03713772 117.65364676 88.51654721 126 95 C134.90980692 101.92114399 143.81651766 108.84540633 152.68164062 115.82373047 C160.4277795 121.91662199 168.21708011 127.95422261 176 134 C184.90980692 140.92114399 193.81651766 147.84540633 202.68164062 154.82373047 C210.4277795 160.91662199 218.21708011 166.95422261 226 173 C234.90980692 179.92114399 243.81651766 186.84540633 252.68164062 193.82373047 C260.4277795 199.91662199 268.21708011 205.95422261 276 212 C284.90980692 218.92114399 293.81651766 225.84540633 302.68164062 232.82373047 C310.4277795 238.91662199 318.21708011 244.95422261 326 251 C334.90980692 257.92114399 343.81651766 264.84540633 352.68164062 271.82373047 C359.65988806 277.31262052 366.6743916 282.75491673 373.68554688 288.20166016 C377.45815634 291.13299363 381.22900355 294.06659198 385 297 C386.49999123 298.16667794 387.99999124 299.3333446 389.5 300.5 C422.5 326.16666667 455.5 351.83333333 488.5 377.5 C489.24282227 378.0777417 489.98564453 378.6554834 490.75097656 379.25073242 C492.24775643 380.41491259 493.74450134 381.5791377 495.24121094 382.7434082 C499.04019058 385.69849173 502.83981465 388.65274014 506.640625 391.60546875 C514.00266704 397.32597439 521.35572926 403.05702149 528.68164062 408.82373047 C535.65988806 414.31262052 542.6743916 419.75491673 549.68554688 425.20166016 C553.45815634 428.13299363 557.22900355 431.06659198 561 434 C562.49999123 435.16667794 563.99999124 436.3333446 565.5 437.5 C592.5 458.5 619.5 479.5 646.5 500.5 C647.24282227 501.0777417 647.98564453 501.6554834 648.75097656 502.25073242 C650.24775643 503.41491259 651.74450134 504.5791377 653.24121094 505.7434082 C657.81077439 509.29789993 662.38160255 512.85075625 666.95361328 516.40209961 C669.22344484 518.16685383 671.49067275 519.93491478 673.7578125 521.703125 C676.38598612 523.75132862 679.02471526 525.78355726 681.6796875 527.796875 C691.02640607 534.93313256 699.53998085 542.83987577 708 551 C707.37304285 554.04352253 706.37172918 556.33650255 704.76953125 558.9921875 C704.30377686 559.76788086 703.83802246 560.54357422 703.3581543 561.34277344 C702.84808838 562.1784082 702.33802246 563.01404297 701.8125 563.875 C701.27858643 564.75704102 700.74467285 565.63908203 700.19458008 566.54785156 C695.1273062 574.87669251 689.88797591 583.09367386 684.6328125 591.3046875 C680.90363564 597.13719264 677.22729524 603.00188177 673.5625 608.875 C672.9422998 609.86878662 672.32209961 610.86257324 671.68310547 611.88647461 C670.42323504 613.90608311 669.16363316 615.92585917 667.90429688 617.94580078 C664.70958414 623.06962851 661.51163294 628.19143114 658.3125 633.3125 C657.68609619 634.31522949 657.05969238 635.31795898 656.41430664 636.35107422 C652.14714039 643.1769749 647.85560417 649.98704822 643.55126953 656.78955078 C640.21374339 662.06814398 636.89263736 667.35676037 633.58447266 672.65380859 C632.32333429 674.67065614 631.05870156 676.685323 629.79052734 678.69775391 C626.44750025 684.01500287 623.18607492 689.3639238 620.02734375 694.79296875 C619.37354736 695.89487549 618.71975098 696.99678223 618.04614258 698.13208008 C616.7947059 700.24452554 615.56539759 702.37028788 614.36206055 704.51049805 C610.23541903 711.4022166 610.23541903 711.4022166 606.72949219 713.09863281 C604.44526022 713.6453754 602.34233852 713.89504064 600 714 C599.09765625 714.15082031 598.1953125 714.30164062 597.265625 714.45703125 C593.73713577 713.7452498 591.97763064 711.32252146 589.75 708.6875 C589.27038818 708.14206543 588.79077637 707.59663086 588.29663086 707.03466797 C584.55217455 702.74446848 580.94440013 698.33944294 577.37109375 693.90625 C574.67366846 690.60001537 571.90861586 687.35865888 569.125 684.125 C563.83722895 677.9799564 558.58887853 671.80314062 553.35888672 665.60888672 C551.07453814 662.90427711 548.78710492 660.20227873 546.5 657.5 C545.58331874 656.41667901 544.66665207 655.33334568 543.75 654.25 C543.29625 653.71375 542.8425 653.1775 542.375 652.625 C537.33333333 646.66666667 532.29166667 640.70833333 527.25 634.75 C526.79608887 634.21358887 526.34217773 633.67717773 525.87451172 633.12451172 C524.95935587 632.04290479 524.0443165 630.96119931 523.12939453 629.87939453 C520.81556522 627.14382061 518.49963529 624.41007526 516.1796875 621.6796875 C511.94920376 616.69685653 507.7414632 611.70297285 503.625 606.625 C499.45778876 601.50186933 495.13687543 596.52405072 490.79736328 591.54736328 C486.89590946 587.06268483 483.11522093 582.49527292 479.375 577.875 C476.47504125 574.36452361 473.49241862 570.93167273 470.5 567.5 C466.02465484 562.36772344 461.65992874 557.16814726 457.375 551.875 C454.47504125 548.36452361 451.49241862 544.93167273 448.5 541.5 C444.02465484 536.36772344 439.65992874 531.16814726 435.375 525.875 C432.4750403 522.36452247 429.49238805 518.93170065 426.5 515.5 C422.00252023 510.34148689 417.61004548 505.11842906 413.30078125 499.80078125 C410.11964796 495.92833207 406.85246445 492.13271217 403.58398438 488.33398438 C398.81025769 482.7858128 394.08068993 477.20125646 389.35888672 471.60888672 C387.07453814 468.90427711 384.78710492 466.20227873 382.5 463.5 C381.58331874 462.41667901 380.66665207 461.33334568 379.75 460.25 C379.29625 459.71375 378.8425 459.1775 378.375 458.625 C366 444 353.625 429.375 341.25 414.75 C340.79608887 414.21358887 340.34217773 413.67717773 339.87451172 413.12451172 C338.95935587 412.04290479 338.0443165 410.96119931 337.12939453 409.87939453 C334.81556522 407.14382061 332.49963529 404.41007526 330.1796875 401.6796875 C325.94920376 396.69685653 321.7414632 391.70297285 317.625 386.625 C313.45778876 381.50186933 309.13687543 376.52405072 304.79736328 371.54736328 C300.89590946 367.06268483 297.11522093 362.49527292 293.375 357.875 C290.47504125 354.36452361 287.49241862 350.93167273 284.5 347.5 C280.02465484 342.36772344 275.65992874 337.16814726 271.375 331.875 C268.4750403 328.36452247 265.49238805 324.93170065 262.5 321.5 C258.00252023 316.34148689 253.61004548 311.11842906 249.30078125 305.80078125 C246.61941084 302.53670217 243.87937137 299.3274928 241.125 296.125 C240.61791504 295.53541504 240.11083008 294.94583008 239.58837891 294.33837891 C239.08097168 293.74847168 238.57356445 293.15856445 238.05078125 292.55078125 C231.82477633 285.31183876 225.6391376 278.04134091 219.625 270.625 C215.45843577 265.50266476 211.13798719 260.52582622 206.79956055 255.54956055 C202.87510903 251.03784637 199.06573217 246.44674445 195.30078125 241.80078125 C192.61941084 238.53670217 189.87937137 235.3274928 187.125 232.125 C186.61791504 231.53541504 186.11083008 230.94583008 185.58837891 230.33837891 C185.08097168 229.74847168 184.57356445 229.15856445 184.05078125 228.55078125 C177.80572679 221.28968997 171.6036885 213.99446571 165.5625 206.5625 C161.1485377 201.14143044 156.60217195 195.84158026 152.04296875 190.54296875 C147.78648075 185.59441284 143.57832994 180.6052146 139.36767578 175.61767578 C137.97540583 173.97091021 136.57994527 172.32689933 135.18359375 170.68359375 C130.95146367 165.69973752 126.74262602 160.70440728 122.625 155.625 C118.45843577 150.50266476 114.13798719 145.52582622 109.79956055 140.54956055 C105.87510903 136.03784637 102.06573217 131.44674445 98.30078125 126.80078125 C95.61941084 123.53670217 92.87937137 120.3274928 90.125 117.125 C89.61791504 116.53541504 89.11083008 115.94583008 88.58837891 115.33837891 C88.08097168 114.74847168 87.57356445 114.15856445 87.05078125 113.55078125 C80.82477633 106.31183876 74.6391376 99.04134091 68.625 91.625 C64.45843577 86.50266476 60.13798719 81.52582622 55.79956055 76.54956055 C51.87510903 72.03784637 48.06573217 67.44674445 44.30078125 62.80078125 C41.61941084 59.53670217 38.87937137 56.3274928 36.125 53.125 C35.61791504 52.53541504 35.11083008 51.94583008 34.58837891 51.33837891 C34.08097168 50.74847168 33.57356445 50.15856445 33.05078125 49.55078125 C26.01892485 41.37487958 19.03032604 33.16189187 12.28125 24.75 C10.63433696 22.76468018 8.97738465 20.87942 7.21875 19 C-0.63374035 10.44690559 -0.63374035 10.44690559 -0.625 4.25 C-0.3515625 1.765625 -0.3515625 1.765625 0 0 Z " fill="#1E92D3" transform="translate(0,424)"/>
<path d="M0 0 C1.7734375 0.87890625 1.7734375 0.87890625 3.7734375 2.87890625 C3.57684565 7.0447811 0.60157469 9.9719926 -1.9140625 13.06640625 C-2.39593018 13.66936523 -2.87779785 14.27232422 -3.37426758 14.89355469 C-8.52109576 21.30770873 -13.76854431 27.64115029 -19.01171875 33.9765625 C-21.49340067 36.9796483 -23.93681505 40.00906488 -26.3515625 43.06640625 C-30.02706614 47.69423525 -33.87550071 52.16325387 -37.73486328 56.63745117 C-40.78398973 60.17779909 -43.78208029 63.75040639 -46.7265625 67.37890625 C-51.11602068 72.78253527 -55.64339059 78.0592908 -60.18359375 83.3359375 C-63.06886825 86.69033253 -65.93335312 90.06182614 -68.7890625 93.44140625 C-69.23878418 93.97362793 -69.68850586 94.50584961 -70.15185547 95.05419922 C-71.05724692 96.12603965 -71.96252067 97.19797951 -72.86767578 98.27001953 C-75.15202436 100.97462914 -77.43945758 103.67662752 -79.7265625 106.37890625 C-80.64324376 107.46222724 -81.55991043 108.54556057 -82.4765625 109.62890625 C-87.9765625 116.12890625 -87.9765625 116.12890625 -89.35205078 117.75439453 C-90.26720663 118.83600146 -91.182246 119.91770694 -92.09716797 120.99951172 C-94.41099728 123.73508564 -96.72692721 126.46883099 -99.046875 129.19921875 C-103.27735874 134.18204972 -107.4850993 139.1759334 -111.6015625 144.25390625 C-115.76877374 149.37703692 -120.08968707 154.35485553 -124.42919922 159.33154297 C-127.59108693 162.96609828 -130.69499191 166.63402493 -133.7265625 170.37890625 C-137.30197776 174.79559569 -140.99255598 179.0967101 -144.7265625 183.37890625 C-149.22404227 188.53741936 -153.61651702 193.76047719 -157.92578125 199.078125 C-161.60662663 203.55888245 -165.40169443 207.94049811 -169.18359375 212.3359375 C-172.06886825 215.69033253 -174.93335312 219.06182614 -177.7890625 222.44140625 C-178.46364502 223.23973877 -178.46364502 223.23973877 -179.15185547 224.05419922 C-180.05724692 225.12603965 -180.96252067 226.19797951 -181.86767578 227.27001953 C-184.15202436 229.97462914 -186.43945758 232.67662752 -188.7265625 235.37890625 C-189.64324376 236.46222724 -190.55991043 237.54556057 -191.4765625 238.62890625 C-196.9765625 245.12890625 -196.9765625 245.12890625 -198.35205078 246.75439453 C-199.26720663 247.83600146 -200.182246 248.91770694 -201.09716797 249.99951172 C-203.41099728 252.73508564 -205.72692721 255.46883099 -208.046875 258.19921875 C-212.27735874 263.18204972 -216.4850993 268.1759334 -220.6015625 273.25390625 C-224.76877374 278.37703692 -229.08968707 283.35485553 -233.42919922 288.33154297 C-236.59108693 291.96609828 -239.69499191 295.63402493 -242.7265625 299.37890625 C-246.30197776 303.79559569 -249.99255598 308.0967101 -253.7265625 312.37890625 C-258.22404227 317.53741936 -262.61651702 322.76047719 -266.92578125 328.078125 C-270.60662663 332.55888245 -274.40169443 336.94049811 -278.18359375 341.3359375 C-281.06886825 344.69033253 -283.93335312 348.06182614 -286.7890625 351.44140625 C-287.46364502 352.23973877 -287.46364502 352.23973877 -288.15185547 353.05419922 C-289.05724692 354.12603965 -289.96252067 355.19797951 -290.86767578 356.27001953 C-293.15202436 358.97462914 -295.43945758 361.67662752 -297.7265625 364.37890625 C-298.64324376 365.46222724 -299.55991043 366.54556057 -300.4765625 367.62890625 C-305.9765625 374.12890625 -305.9765625 374.12890625 -307.35205078 375.75439453 C-308.26720663 376.83600146 -309.182246 377.91770694 -310.09716797 378.99951172 C-312.41099728 381.73508564 -314.72692721 384.46883099 -317.046875 387.19921875 C-321.27735874 392.18204972 -325.4850993 397.1759334 -329.6015625 402.25390625 C-333.76877374 407.37703692 -338.08968707 412.35485553 -342.42919922 417.33154297 C-345.59108693 420.96609828 -348.69499191 424.63402493 -351.7265625 428.37890625 C-355.84549416 433.46699831 -360.12803584 438.39894448 -364.4296875 443.33203125 C-367.59135481 446.96647124 -370.69513722 450.63420443 -373.7265625 454.37890625 C-377.84549416 459.46699831 -382.12803584 464.39894448 -386.4296875 469.33203125 C-389.59135481 472.96647124 -392.69513722 476.63420443 -395.7265625 480.37890625 C-399.80413377 485.41239166 -404.03162165 490.30223934 -408.28466797 495.18701172 C-413.205339 500.84155504 -418.05437349 506.55362711 -422.88378906 512.28613281 C-425.16077689 514.98705437 -427.44402044 517.68267869 -429.7265625 520.37890625 C-430.64325834 521.4622149 -431.55992503 522.54554821 -432.4765625 523.62890625 C-468.2265625 565.87890625 -468.2265625 565.87890625 -503.9765625 608.12890625 C-504.65706665 608.9331604 -504.65706665 608.9331604 -505.35131836 609.75366211 C-506.26874047 610.83785863 -507.18622102 611.9220057 -508.10375977 613.00610352 C-510.38434794 615.70082936 -512.66394065 618.39638437 -514.94140625 621.09375 C-519.72064576 626.75161451 -524.5210476 632.38973368 -529.3515625 638.00390625 C-532.84471356 642.0651937 -536.29104646 646.15409212 -539.6640625 650.31640625 C-543.80717241 655.4219809 -548.108867 660.37690678 -552.42944336 665.33178711 C-555.59122088 668.96628476 -558.69506456 672.63411468 -561.7265625 676.37890625 C-565.30198176 680.79560063 -568.9926385 685.09663251 -572.7265625 689.37890625 C-581.75014577 699.31878937 -581.75014577 699.31878937 -589.609375 710.125 C-591.92114368 712.63220806 -593.61775098 712.60898291 -596.9765625 712.75390625 C-597.98203125 712.83382812 -598.9875 712.91375 -600.0234375 712.99609375 C-605.36416637 711.13335173 -607.36790993 706.55613855 -610.2265625 701.87890625 C-610.82436523 700.92564453 -611.42216797 699.97238281 -612.03808594 698.99023438 C-613.95704888 695.90404623 -615.84388782 692.79985029 -617.7265625 689.69140625 C-623.02519671 680.99264679 -628.4388216 672.38815717 -634.0390625 663.87890625 C-638.42478084 657.2147012 -642.72777545 650.52105064 -646.8515625 643.69140625 C-651.15221418 636.56924714 -655.62902499 629.57891607 -660.18237305 622.6159668 C-666.01446454 613.69342387 -671.7275815 604.6967102 -677.43847656 595.69628906 C-679.86830606 591.86774831 -682.30049823 588.04072376 -684.73681641 584.21630859 C-685.92697078 582.34256515 -687.11165931 580.46533738 -688.29052734 578.58447266 C-690.81080585 574.5773383 -693.34251593 570.6468463 -696.2109375 566.87890625 C-700.37043093 561.3341718 -703.04183769 556.95992911 -702.2890625 549.81640625 C-699.57937065 541.02954317 -692.64769725 536.53313632 -685.44042969 531.44482422 C-682.63169542 529.45814341 -679.891399 527.38799107 -677.14746094 525.31323242 C-675.15791462 523.81176659 -673.15750803 522.32564842 -671.15625 520.83984375 C-666.66501722 517.48193338 -662.3032188 513.97193042 -657.94116211 510.44897461 C-653.26149603 506.67990656 -648.51110433 503.01366608 -643.7265625 499.37890625 C-637.61317312 494.73309046 -631.58393672 489.99764181 -625.6027832 485.18310547 C-621.22444892 481.66348441 -616.80099169 478.21308528 -612.33959961 474.79907227 C-607.72175401 471.26491449 -603.12761756 467.70099992 -598.5390625 464.12890625 C-597.77746826 463.53609863 -597.01587402 462.94329102 -596.23120117 462.33251953 C-594.67310445 461.11955944 -593.11508087 459.90650539 -591.55712891 458.69335938 C-587.78138982 455.75377286 -584.00388506 452.81645753 -580.2265625 449.87890625 C-579.11776733 449.01640259 -579.11776733 449.01640259 -577.98657227 448.13647461 C-574.18720352 445.18104266 -570.38715932 442.22648577 -566.5859375 439.2734375 C-559.78726898 433.99068831 -552.99187769 428.70433293 -546.2265625 423.37890625 C-538.68972841 417.44616606 -531.11558379 411.56168707 -523.54101562 405.67724609 C-519.76840616 402.74591262 -515.99755895 399.81231427 -512.2265625 396.87890625 C-510.72657127 395.71222831 -509.22657126 394.54556165 -507.7265625 393.37890625 C-506.6128125 392.51265625 -506.6128125 392.51265625 -505.4765625 391.62890625 C-498.7265625 386.37890625 -498.7265625 386.37890625 -496.47558594 384.62817383 C-494.97880607 383.46399366 -493.48206116 382.29976855 -491.98535156 381.13549805 C-488.18637192 378.18041452 -484.38674785 375.22616611 -480.5859375 372.2734375 C-473.78726898 366.99068831 -466.99187769 361.70433293 -460.2265625 356.37890625 C-452.68972841 350.44616606 -445.11558379 344.56168707 -437.54101562 338.67724609 C-433.76840616 335.74591262 -429.99755895 332.81231427 -426.2265625 329.87890625 C-424.72657127 328.71222831 -423.22657126 327.54556165 -421.7265625 326.37890625 C-420.6128125 325.51265625 -420.6128125 325.51265625 -419.4765625 324.62890625 C-394.7265625 305.37890625 -394.7265625 305.37890625 -392.47558594 303.62817383 C-390.97880607 302.46399366 -389.48206116 301.29976855 -387.98535156 300.13549805 C-384.18637192 297.18041452 -380.38674785 294.22616611 -376.5859375 291.2734375 C-369.78726898 285.99068831 -362.99187769 280.70433293 -356.2265625 275.37890625 C-347.14862539 268.23306203 -338.01820644 261.15465981 -328.89453125 254.06738281 C-320.7653075 247.75186402 -312.64174737 241.4299749 -304.55371094 235.06176758 C-299.79220783 231.31580594 -295.01089524 227.59564817 -290.2265625 223.87890625 C-283.10323073 218.34445238 -275.99959523 212.78582438 -268.91210938 207.20556641 C-265.43233172 204.46670317 -261.94921938 201.73208095 -258.46679688 198.99658203 C-255.59922185 196.74382913 -252.73233296 194.49021736 -249.8671875 192.234375 C-242.56766112 186.48937738 -235.2435135 180.77687008 -227.90820312 175.07763672 C-220.99420034 169.70351733 -214.10643683 164.29660589 -207.2265625 158.87890625 C-198.8088721 152.25022148 -190.36895612 145.65129253 -181.90820312 139.07763672 C-174.99420034 133.70351733 -168.10643683 128.29660589 -161.2265625 122.87890625 C-151.36098166 115.11005014 -141.46210741 107.38514259 -131.54541016 99.68164062 C-129.25407823 97.90029772 -126.96462477 96.11657002 -124.67578125 94.33203125 C-116.68739273 88.10588883 -108.67458996 81.9145789 -100.62084961 75.77319336 C-95.46603729 71.83814484 -90.34086696 67.86642336 -85.2265625 63.87890625 C-77.24350323 57.65538193 -69.21063653 51.49930099 -61.16357422 45.35888672 C-57.20657168 42.33552531 -53.26189174 39.29617772 -49.31640625 36.2578125 C-47.26808508 34.68078646 -45.21861795 33.10524766 -43.16796875 31.53125 C-37.61801436 27.27004906 -32.08056968 22.99357199 -26.55981445 18.69458008 C-25.01143273 17.48967113 -23.46180073 16.28636705 -21.91088867 15.0847168 C-18.35712075 12.32953135 -14.81930216 9.56077834 -11.328125 6.7265625 C-10.44060547 6.0159668 -10.44060547 6.0159668 -9.53515625 5.29101562 C-7.95942423 4.02787082 -6.39339839 2.75264455 -4.828125 1.4765625 C-2.2265625 -0.12109375 -2.2265625 -0.12109375 0 0 Z " fill="#1E92D3" transform="translate(2216.2265625,426.12109375)"/>
<path d="M0 0 C4.11070314 0.19659885 6.38780861 2.91818472 9.25 5.625 C10.23251337 6.54356762 11.21558915 7.46153402 12.19921875 8.37890625 C13.12347656 9.24386719 14.04773438 10.10882813 15 11 C16.34736907 12.19520717 17.70070445 13.3837564 19.0625 14.5625 C22.01707997 17.12673912 24.91960685 19.74137557 27.8125 22.375 C31.33010818 25.55759788 34.92747051 28.59117962 38.625 31.5625 C42.71707416 34.87184267 46.45498071 38.34348017 50.12109375 42.11328125 C52.54902569 44.55130855 55.12713021 46.77668484 57.734375 49.01953125 C60.53316216 51.46605727 63.26691498 53.98074944 66 56.5 C69.27839637 59.5194289 72.56581444 62.5220256 75.9375 65.4375 C80.12032011 69.06144644 84.16271807 72.83255746 88.22021484 76.59521484 C91.73212744 79.84615512 95.29001418 83.02984313 98.91015625 86.16015625 C102.18114489 89.03984905 105.37503091 92.00354253 108.58056641 94.95556641 C111.33491097 97.48754824 114.1075121 99.99042801 116.9375 102.4375 C121.12032011 106.06144644 125.16271807 109.83255746 129.22021484 113.59521484 C132.73482029 116.84864787 136.29608667 120.03408762 139.91796875 123.16796875 C143.13491793 125.99864261 146.2797068 128.90767016 149.43334961 131.80834961 C154.25603882 136.24236939 159.12349669 140.62525909 164 145 C165.66692647 146.49971128 167.33359149 147.99971321 169 149.5 C169.825 150.2425 170.65 150.985 171.5 151.75 C179 158.5 179 158.5 181.5078125 160.7578125 C183.14739879 162.23292618 184.78799655 163.70691652 186.4296875 165.1796875 C191.0203061 169.30097768 195.58447107 173.44873788 200.125 177.625 C203.38390494 180.62180011 206.65499549 183.59914547 210 186.5 C213.87817013 189.86322638 217.65527811 193.33335671 221.43310547 196.80810547 C226.25584891 201.24223628 231.1234112 205.6251824 236 210 C237.66692647 211.49971128 239.33359149 212.99971321 241 214.5 C241.825 215.2425 242.65 215.985 243.5 216.75 C251 223.5 251 223.5 253.5078125 225.7578125 C255.14739879 227.23292618 256.78799655 228.70691652 258.4296875 230.1796875 C263.0203061 234.30097768 267.58447107 238.44873788 272.125 242.625 C275.99367822 246.18253099 279.90334125 249.68289575 283.875 253.125 C286.61823494 255.54550142 289.30881243 258.02204178 292 260.5 C295.95859723 264.1441694 299.95176832 267.73913779 304.015625 271.265625 C308.05374691 274.79500714 312.01914681 278.40634226 316 282 C317.66640851 283.50028679 319.33307353 285.00028872 321 286.5 C324.33333333 289.5 327.66666667 292.5 331 295.5 C331.82242187 296.23992187 332.64484375 296.97984375 333.4921875 297.7421875 C335.18592894 299.26708244 336.87861169 300.79315402 338.5703125 302.3203125 C339.41335938 303.08085938 340.25640625 303.84140625 341.125 304.625 C341.9396875 305.38167969 342.754375 306.13835937 343.59375 306.91796875 C345.90556719 309.02958372 345.90556719 309.02958372 348.40625 310.48828125 C352.28039614 313.01875346 353.71684217 315.05404309 355.0546875 319.5234375 C357.17990374 334.0580611 348.02474834 345.35563944 340.22802734 356.73681641 C337.46345295 360.78583036 334.78915657 364.88948796 332.1184082 369.00073242 C330.87608536 370.91186097 329.62854502 372.81960834 328.37573242 374.72387695 C323.81736173 381.66189213 319.50693851 388.72118184 315.27636719 395.86254883 C311.27565614 402.59806826 307.06143339 409.17282877 302.77734375 415.73046875 C298.26793019 422.63785942 293.89722053 429.63383511 289.50292969 436.61474609 C288.0385039 438.93889164 286.57074131 441.26088789 285.1015625 443.58203125 C284.38286987 444.71910522 284.38286987 444.71910522 283.6496582 445.87915039 C282.67483477 447.41813111 281.69680283 448.95508417 280.71557617 450.48999023 C277.79925827 455.07048307 274.99410744 459.69775615 272.26171875 464.390625 C271.61630127 465.47706299 270.97088379 466.56350098 270.3059082 467.68286133 C269.0485773 469.80215305 267.81277803 471.93441612 266.60229492 474.08081055 C262.92528162 480.21458712 260.00010493 483.28758855 253.12353516 485.51391602 C251 486 251 486 249 486 C248.64397705 485.33806641 248.2879541 484.67613281 247.92114258 483.99414062 C241.44046539 471.94690063 234.95464237 459.90256355 228.4375 447.875 C227.90688965 446.89539307 227.3762793 445.91578613 226.82958984 444.90649414 C224.13088055 439.9258662 221.42784539 434.94764289 218.71875 429.97265625 C211.80535103 417.26453461 205.04145961 404.48719129 198.37597656 391.64746094 C193.52639729 382.3165813 188.62730381 373.0122827 183.640625 363.75390625 C176.70473146 350.87375845 169.86985048 337.95123834 163.1875 324.9375 C162.82334991 324.2283847 162.45919983 323.51926941 162.08401489 322.78866577 C160.6660712 320.02713208 159.24823655 317.26554243 157.83058167 314.50386047 C152.55617412 304.23467842 147.17289158 294.0255094 141.6953125 283.86328125 C134.5615407 270.61965051 127.54998117 257.3239863 120.6875 243.9375 C120.2997641 243.18121307 119.9120282 242.42492615 119.51254272 241.64572144 C118.74352037 240.14555632 117.97452271 238.64537854 117.20555115 237.14518738 C116.83607864 236.42438492 116.46660614 235.70358246 116.0859375 234.9609375 C115.72383682 234.25443558 115.36173615 233.54793365 114.98866272 232.82002258 C109.65616187 222.4216883 104.20497238 212.08949037 98.6640625 201.80078125 C97.42153147 199.49237138 96.17921969 197.18384616 94.9375 194.875 C94.62387512 194.29196106 94.31025024 193.70892212 93.98712158 193.10821533 C87.48311545 181.00458543 81.19287246 168.7943072 74.91952515 156.56997681 C74.57225372 155.89332977 74.2249823 155.21668274 73.8671875 154.51953125 C73.52660309 153.85585541 73.18601868 153.19217957 72.83511353 152.50839233 C69.82196614 146.6422388 66.75881466 140.80341361 63.67456055 134.97436523 C60.0778747 128.16947515 56.53824435 121.33542667 53 114.5 C49.02430175 106.82033724 45.03875292 99.14670553 41 91.5 C36.96124674 83.85329383 32.97577257 76.17962481 29 68.5 C24.59574112 59.99335379 20.1740271 51.49688957 15.70068359 43.02636719 C13.40687615 38.68070315 11.12684908 34.32822254 8.859375 29.96875 C8.32199707 28.93588867 7.78461914 27.90302734 7.23095703 26.83886719 C6.18907419 24.83492957 5.14831598 22.83040668 4.10888672 20.82519531 C2.02448698 16.81700521 -0.06747039 12.84809597 -2.390625 8.97265625 C-4 6 -4 6 -3.375 3.6875 C-2 2 -2 2 0 0 Z " fill="#198DCF" transform="translate(486,434)"/>
<path d="M0 0 C2.96908156 2.15933204 4.17045806 4.98222778 4.98779297 8.50683594 C5.01502513 14.06873357 1.52542701 18.90748074 -1.125 23.625 C-1.7824875 24.83669185 -2.4377314 26.04960358 -3.09082031 27.26367188 C-5.03273911 30.85818861 -7.0146747 34.4292784 -9 38 C-10.45902464 40.65584509 -11.91340507 43.31418347 -13.3671875 45.97290039 C-14.29946619 47.67664629 -15.23442193 49.3789297 -16.171875 51.07983398 C-20.98896311 59.8636113 -25.55672381 68.77273811 -30.125 77.6875 C-30.51841583 78.45514679 -30.91183167 79.22279358 -31.31716919 80.01370239 C-32.85643977 83.01763655 -34.39552375 86.0216662 -35.9342804 89.02586365 C-41.30209015 99.50015628 -46.79410798 109.90520773 -52.37109375 120.26953125 C-53.62265152 122.5962172 -54.8740426 124.92299134 -56.125 127.25 C-56.59785431 128.1293924 -56.59785431 128.1293924 -57.08026123 129.02655029 C-62.25371583 138.65628511 -67.31183482 148.34201939 -72.3125 158.0625 C-72.65306427 158.72444366 -72.99362854 159.38638733 -73.34451294 160.06838989 C-74.67234 162.649609 -76.00002721 165.2309 -77.32749939 167.81230164 C-82.56853532 177.99872006 -87.91184611 188.12897961 -93.34375 198.21484375 C-94.58361008 200.51808021 -95.82318374 202.82147088 -97.0625 205.125 C-97.37660828 205.7086734 -97.69071655 206.2923468 -98.01434326 206.89370728 C-103.73521582 217.53489404 -109.27665917 228.26344021 -114.78424072 239.01623535 C-119.06238938 247.36387751 -123.3955413 255.66676524 -127.9375 263.875 C-133.19538124 273.38016393 -138.17195371 283.02127081 -143.125 292.6875 C-143.51868774 293.45569061 -143.91237549 294.22388123 -144.31799316 295.01535034 C-145.85697046 298.01870638 -147.39577229 301.02215223 -148.93423462 304.02577209 C-154.30205544 314.50009735 -159.79409185 324.90517775 -165.37109375 335.26953125 C-166.62260184 337.59624372 -167.87393499 339.92304935 -169.125 342.25 C-169.44090088 342.83725861 -169.75680176 343.42451721 -170.08227539 344.02957153 C-175.22196547 353.59186521 -180.23123714 363.21653507 -185.1875 372.875 C-190.23050636 382.70250542 -195.37219202 392.46329253 -200.70385742 402.13818359 C-204.22855064 408.54551887 -207.63575733 415.00711502 -211 421.5 C-215.32310372 429.83746432 -219.72927992 438.12160054 -224.28027344 446.3371582 C-226.87628906 451.03854082 -229.40587928 455.76237314 -231.82597351 460.55632019 C-233.13173959 463.13920121 -234.45600538 465.71241885 -235.78085327 468.28555298 C-236.42063695 469.54112618 -237.05140958 470.80133698 -237.67251587 472.06625366 C-243.19750056 483.30617188 -243.19750056 483.30617188 -248.203125 485.30078125 C-252 486 -252 486 -256 486 C-257.31762695 484.63671875 -257.31762695 484.63671875 -258.48828125 482.6875 C-258.93945312 481.95402344 -259.390625 481.22054688 -259.85546875 480.46484375 C-260.33628906 479.65144531 -260.81710937 478.83804687 -261.3125 478 C-262.381286 476.24986293 -263.45030754 474.49986969 -264.51953125 472.75 C-265.08365723 471.81542969 -265.6477832 470.88085938 -266.22900391 469.91796875 C-269.26688634 464.912624 -272.389392 459.9603415 -275.5 455 C-276.77759487 452.95458391 -278.05494072 450.90901227 -279.33203125 448.86328125 C-284.52412691 440.55619883 -289.76048604 432.27722267 -295 424 C-302.17801098 412.66039948 -309.31906736 401.29868526 -316.42626953 389.91455078 C-321.7642845 381.36798262 -327.13742883 372.84411246 -332.52636719 364.32958984 C-334.07374582 361.88341906 -335.61916627 359.43602051 -337.1640625 356.98828125 C-337.68750244 356.15949463 -338.21094238 355.33070801 -338.75024414 354.47680664 C-339.77742194 352.84831489 -340.80270649 351.21862714 -341.82592773 349.58764648 C-343.93846447 346.2260375 -346.05793383 342.88053281 -348.30859375 339.609375 C-354.12030857 331.04966626 -354.12030857 331.04966626 -353 325 C-351.34299881 317.69630797 -348.44532731 313.7036295 -342.8125 308.875 C-342.13340576 308.26809326 -341.45431152 307.66118652 -340.75463867 307.03588867 C-338.85063492 305.3401175 -336.92916215 303.66702432 -335 302 C-334.2265625 301.31808594 -333.453125 300.63617187 -332.65625 299.93359375 C-331.44952749 298.87259832 -330.23746198 297.81764158 -329.01953125 296.76953125 C-326.30513807 294.3911558 -323.65427613 291.94491095 -321 289.5 C-317.09025645 285.89979545 -313.14133329 282.35582218 -309.125 278.875 C-305.84491419 275.98080664 -302.63731943 273.00781108 -299.41967773 270.04467773 C-296.66526572 267.51259884 -293.89257501 265.00964732 -291.0625 262.5625 C-287.47041409 259.45035876 -283.98448008 256.23127914 -280.5 253 C-276.41698978 249.21368312 -272.30230283 245.48232951 -268.08984375 241.83984375 C-265.35629441 239.43329844 -262.67885994 236.96696804 -260 234.5 C-256.09020819 230.89984677 -252.14133464 227.35582336 -248.125 223.875 C-245.38176582 221.45449925 -242.69115432 218.97799358 -240 216.5 C-236.09018405 212.89987244 -232.14133532 209.35582395 -228.125 205.875 C-225.38176582 203.45449925 -222.69115432 200.97799358 -220 198.5 C-216.69971077 195.46111982 -213.39050717 192.43843955 -210 189.5 C-206.12182987 186.13677362 -202.34472189 182.66664329 -198.56689453 179.19189453 C-193.74415109 174.75776372 -188.8765888 170.3748176 -184 166 C-182.33307353 164.50028872 -180.66640851 163.00028679 -179 161.5 C-169 152.5 -159 143.5 -149 134.5 C-148.17242188 133.75492188 -147.34484375 133.00984375 -146.4921875 132.2421875 C-144.85260121 130.76707382 -143.21200345 129.29308348 -141.5703125 127.8203125 C-136.9796939 123.69902232 -132.41552893 119.55126212 -127.875 115.375 C-124.00632178 111.81746901 -120.09665875 108.31710425 -116.125 104.875 C-113.38176582 102.45449925 -110.69115432 99.97799358 -108 97.5 C-104.09018405 93.89987244 -100.14133532 90.35582395 -96.125 86.875 C-92.84491419 83.98080664 -89.63731943 81.00781108 -86.41967773 78.04467773 C-83.66526572 75.51259884 -80.89257501 73.00964732 -78.0625 70.5625 C-74.47041409 67.45035876 -70.98448008 64.23127914 -67.5 61 C-63.41698978 57.21368312 -59.30230283 53.48232951 -55.08984375 49.83984375 C-52.35629441 47.43329844 -49.67885994 44.96696804 -47 42.5 C-43.09020819 38.89984677 -39.14133464 35.35582336 -35.125 31.875 C-32.38176582 29.45449925 -29.69115432 26.97799358 -27 24.5 C-23.69971077 21.46111982 -20.39050717 18.43843955 -17 15.5 C-11.22642203 10.49541867 -5.40395969 5.40395969 0 0 Z " fill="#198DD0" transform="translate(1731,433)"/>
</svg>
